# xmcd CD database file
#
# Track frame offsets:
#	150
#	15521
#	40788
#	66788
#	88063
#	101004
#	127757
#	141096
#	159077
#	194746
#
# Disc length: 2769 seconds
#
# Revision: 0
# Processed by: cddbd v1.5.2PL0 Copyright (c) Steve Scherf et al.
# Submitted via: CDex 1.70beta2
#
DISCID=7b0acf0a
DTITLE=Groove Improve - Chapeau
DYEAR=2013
DGENRE=Jazz
TTITLE0=Serge
TTITLE1=Morning Flower
TTITLE2=African Roots
TTITLE3=Chapeau
TTITLE4=Cool
TTITLE5=Garden Party
TTITLE6=Interlude
TTITLE7=Well Done
TTITLE8=Watching The Wheels Go Round
TTITLE9=Swing 42
EXTD=YEAR: 2013
EXTT0=
EXTT1=
EXTT2=
EXTT3=
EXTT4=
EXTT5=
EXTT6=
EXTT7=
EXTT8=
EXTT9=
PLAYORDER=
